<?xml version="1.0" encoding="UTF-8" standalone="no"?>
<!-- Created with Inkscape (http://www.inkscape.org/) -->

<svg
   width="192"
   height="192"
   viewBox="0 0 192 192"
   version="1.1"
   id="svg1"
   xml:space="preserve"
   inkscape:version="1.3.2 (091e20e, 2023-11-25, custom)"
   sodipodi:docname="CleanArchIcon.inkscape.svg"
   inkscape:export-filename="CleanArchIconGold-192x192.png"
   inkscape:export-xdpi="96"
   inkscape:export-ydpi="96"
   xmlns:inkscape="http://www.inkscape.org/namespaces/inkscape"
   xmlns:sodipodi="http://sodipodi.sourceforge.net/DTD/sodipodi-0.dtd"
   xmlns="http://www.w3.org/2000/svg"
   xmlns:svg="http://www.w3.org/2000/svg"><sodipodi:namedview
     id="namedview1"
     pagecolor="#ffffff"
     bordercolor="#000000"
     borderopacity="0.25"
     inkscape:showpageshadow="2"
     inkscape:pageopacity="0.0"
     inkscape:pagecheckerboard="0"
     inkscape:deskcolor="#d1d1d1"
     inkscape:document-units="px"
     inkscape:zoom="0.70710678"
     inkscape:cx="-195.86858"
     inkscape:cy="75.660426"
     inkscape:window-width="2304"
     inkscape:window-height="1190"
     inkscape:window-x="2293"
     inkscape:window-y="-11"
     inkscape:window-maximized="1"
     inkscape:current-layer="layer1"
     showguides="true" /><defs
     id="defs1" /><g
     inkscape:label="Camada 1"
     inkscape:groupmode="layer"
     id="layer1"><path
       sodipodi:type="star"
       style="fill:#b3b3b3"
       id="path1"
       inkscape:flatsided="true"
       sodipodi:sides="6"
       sodipodi:cx="637.18536"
       sodipodi:cy="432.58456"
       sodipodi:r1="229.0166"
       sodipodi:r2="198.3342"
       sodipodi:arg1="0.52359878"
       sodipodi:arg2="1.0471976"
       inkscape:rounded="0.1"
       inkscape:randomized="0"
       d="m 835.51956,547.09287 c -11.45083,19.83342 -175.43254,114.5083 -198.3342,114.5083 -22.90166,0 -186.88336,-94.67489 -198.33419,-114.50831 -11.45083,-19.83342 -11.45083,-209.18318 0,-229.0166 11.45083,-19.83342 175.43253,-114.5083 198.33419,-114.5083 22.90166,0 186.88337,94.67488 198.3342,114.5083 11.45083,19.83342 11.45083,209.18319 0,229.01661 z"
       transform="rotate(30,1107.6045,3594.1986)" /><g
       id="g47"
       transform="translate(216.66098,-277.82195)"><path
         sodipodi:type="star"
         style="fill:#333333"
         id="path44"
         inkscape:flatsided="true"
         sodipodi:sides="6"
         sodipodi:cx="637.18536"
         sodipodi:cy="432.58456"
         sodipodi:r1="229.0166"
         sodipodi:r2="198.3342"
         sodipodi:arg1="0.52359878"
         sodipodi:arg2="1.0471976"
         inkscape:rounded="0.1"
         inkscape:randomized="0"
         d="m 835.51956,547.09287 c -11.45083,19.83342 -175.43254,114.5083 -198.3342,114.5083 -22.90166,0 -186.88336,-94.67489 -198.33419,-114.50831 -11.45083,-19.83342 -11.45083,-209.18318 0,-229.0166 11.45083,-19.83342 175.43253,-114.5083 198.33419,-114.5083 22.90166,0 186.88337,94.67488 198.3342,114.5083 11.45083,19.83342 11.45083,209.18319 0,229.01661 z"
         transform="matrix(0.22606855,0.13024859,-0.13052073,0.22559719,113.29936,193.19099)" /><path
         id="path5"
         style="fill:#4d4d4d;stroke-width:0.261042"
         d="m 208.75578,319.87067 -12.65865,53.72395 h 9.59674 l -13.12166,54.08142 c 15.90105,0.37231 35.08171,-0.3229 38.20488,-2.12606 5.17734,-2.98914 29.89142,-45.79522 29.89142,-51.7735 10e-6,-5.97828 -24.71407,-48.78436 -29.89141,-51.7735 -2.08266,-1.20242 -11.37848,-1.89727 -22.02132,-2.13231 z" /></g><g
       id="g48"
       transform="translate(267.95459,-479.4039)"><path
         sodipodi:type="star"
         style="fill:#ffcc00"
         id="path45"
         inkscape:flatsided="true"
         sodipodi:sides="6"
         sodipodi:cx="637.18536"
         sodipodi:cy="432.58456"
         sodipodi:r1="229.0166"
         sodipodi:r2="198.3342"
         sodipodi:arg1="0.52359878"
         sodipodi:arg2="1.0471976"
         inkscape:rounded="0.1"
         inkscape:randomized="0"
         d="m 835.51956,547.09287 c -11.45083,19.83342 -175.43254,114.5083 -198.3342,114.5083 -22.90166,0 -186.88336,-94.67489 -198.33419,-114.50831 -11.45083,-19.83342 -11.45083,-209.18318 0,-229.0166 11.45083,-19.83342 175.43253,-114.5083 198.33419,-114.5083 22.90166,0 186.88337,94.67488 198.3342,114.5083 11.45083,19.83342 11.45083,209.18319 0,229.01661 z"
         transform="matrix(0.20462897,0.11802761,-0.11814259,0.20442981,208.78715,411.76525)" /><path
         id="path7"
         style="fill:#ffdd55;stroke-width:0.236055"
         d="m 294.74914,526.65125 -11.44433,48.57079 h 9.59674 l -11.87142,48.92848 c 14.28998,0.31306 31.29855,-0.3151 34.09356,-1.92881 4.68178,-2.70302 27.03034,-41.41176 27.03034,-46.81781 0,-5.40605 -22.34856,-44.11479 -27.03033,-46.81781 -1.91297,-1.10445 -10.55975,-1.73294 -20.37456,-1.93484 z" /></g><g
       id="g49"
       transform="translate(384.37227,-491.51958)"><path
         sodipodi:type="star"
         style="fill:#672178"
         id="path46"
         inkscape:flatsided="true"
         sodipodi:sides="6"
         sodipodi:cx="637.18536"
         sodipodi:cy="432.58456"
         sodipodi:r1="229.0166"
         sodipodi:r2="198.3342"
         sodipodi:arg1="0.52359878"
         sodipodi:arg2="1.0471976"
         inkscape:rounded="0.1"
         inkscape:randomized="0"
         d="m 835.51956,547.09287 c -11.45083,19.83342 -175.43254,114.5083 -198.3342,114.5083 -22.90166,0 -186.88336,-94.67489 -198.33419,-114.50831 -11.45083,-19.83342 -11.45083,-209.18318 0,-229.0166 11.45083,-19.83342 175.43253,-114.5083 198.33419,-114.5083 22.90166,0 186.88337,94.67488 198.3342,114.5083 11.45083,19.83342 11.45083,209.18319 0,229.01661 z"
         transform="matrix(0.15637628,0.08999649,-0.09028389,0.1558785,231.10931,462.78044)" /><path
         id="path10"
         style="fill:#ab37c8;stroke-width:0.179836"
         d="m 295.70196,550.42923 -8.71222,36.97561 h 9.59674 l -9.05853,37.33465 c 10.63938,0.18195 22.78647,-0.2978 24.84313,-1.48521 3.56676,-2.05927 20.59256,-31.54904 20.59256,-35.66758 0,-4.11854 -17.02581,-33.60853 -20.59256,-35.6678 -1.53112,-0.88398 -8.72573,-1.36463 -16.66912,-1.48967 z" /></g><g
       id="g50"
       transform="translate(466.27371,-470.48418)"><path
         sodipodi:type="star"
         style="fill:#2c5aa0"
         id="path47"
         inkscape:flatsided="true"
         sodipodi:sides="6"
         sodipodi:cx="637.18536"
         sodipodi:cy="432.58456"
         sodipodi:r1="229.0166"
         sodipodi:r2="198.3342"
         sodipodi:arg1="0.52359878"
         sodipodi:arg2="1.0471976"
         inkscape:rounded="0.1"
         inkscape:randomized="0"
         d="m 835.51956,547.09287 c -11.45083,19.83342 -175.43254,114.5083 -198.3342,114.5083 -22.90166,0 -186.88336,-94.67489 -198.33419,-114.50831 -11.45083,-19.83342 -11.45083,-209.18318 0,-229.0166 11.45083,-19.83342 175.43253,-114.5083 198.33419,-114.5083 22.90166,0 186.88337,94.67488 198.3342,114.5083 11.45083,19.83342 11.45083,209.18319 0,229.01661 z"
         transform="matrix(0.08183317,0.04724237,-0.04724641,0.08182618,265.66067,501.07039)" /><path
         id="path12"
         style="fill:#5f8dd3;stroke-width:0.094493"
         d="m 297.3655,547.01515 c -0.0763,0 -0.14882,0.003 -0.22515,0.003 l -4.5634,19.36776 h 9.59674 l -4.78811,19.73437 c 4.93477,-8.8e-4 9.86436,-0.27106 10.80013,-0.81133 1.87412,-1.08202 10.82021,-16.57714 10.82021,-18.74118 0,-2.16405 -8.94609,-17.65938 -10.82021,-18.74141 -0.93706,-0.54101 -5.87862,-0.81133 -10.82021,-0.81133 z" /></g><path
       sodipodi:type="star"
       style="fill:#b3b3b3"
       id="path43"
       inkscape:flatsided="true"
       sodipodi:sides="6"
       sodipodi:cx="637.18536"
       sodipodi:cy="432.58456"
       sodipodi:r1="229.0166"
       sodipodi:r2="198.3342"
       sodipodi:arg1="0.52359878"
       sodipodi:arg2="1.0471976"
       inkscape:rounded="0.1"
       inkscape:randomized="0"
       d="m 835.51956,547.09287 c -11.45083,19.83342 -175.43254,114.5083 -198.3342,114.5083 -22.90166,0 -186.88336,-94.67489 -198.33419,-114.50831 -11.45083,-19.83342 -11.45083,-209.18318 0,-229.0166 11.45083,-19.83342 175.43253,-114.5083 198.33419,-114.5083 22.90166,0 186.88337,94.67488 198.3342,114.5083 11.45083,19.83342 11.45083,209.18319 0,229.01661 z"
       transform="matrix(0.34087415,0.19680378,-0.19680378,0.34087415,-30.208408,-476.81915)" /><g
       id="g100"
       transform="translate(-653.87963,-822.01221)"><path
         sodipodi:type="star"
         style="fill:#333333"
         id="path50"
         inkscape:flatsided="true"
         sodipodi:sides="6"
         sodipodi:cx="637.18536"
         sodipodi:cy="432.58456"
         sodipodi:r1="229.0166"
         sodipodi:r2="198.3342"
         sodipodi:arg1="0.52359878"
         sodipodi:arg2="1.0471976"
         inkscape:rounded="0.1"
         inkscape:randomized="0"
         d="m 835.51956,547.09287 c -11.45083,19.83342 -175.43254,114.5083 -198.3342,114.5083 -22.90166,0 -186.88336,-94.67489 -198.33419,-114.50831 -11.45083,-19.83342 -11.45083,-209.18318 0,-229.0166 11.45083,-19.83342 175.43253,-114.5083 198.33419,-114.5083 22.90166,0 186.88337,94.67488 198.3342,114.5083 11.45083,19.83342 11.45083,209.18319 0,229.01661 z"
         transform="matrix(0.22606855,0.13024859,-0.13052073,0.22559719,-3.65235,812.86905)" /><path
         id="path51"
         style="fill:#4d4d4d;stroke-width:0.261042"
         d="m 91.80407,939.54873 -12.65865,53.72395 h 9.59674 L 75.6205,1047.3541 c 15.90105,0.3723 35.08171,-0.3229 38.20488,-2.1261 5.17734,-2.9891 29.89142,-45.79518 29.89142,-51.77346 1e-5,-5.97828 -24.71407,-48.78436 -29.89141,-51.7735 -2.08266,-1.20242 -11.37848,-1.89727 -22.02132,-2.13231 z" /></g><g
       id="g101"
       transform="translate(-654.49194,-822.01221)"><path
         sodipodi:type="star"
         style="fill:#ffcc00"
         id="path67"
         inkscape:flatsided="true"
         sodipodi:sides="6"
         sodipodi:cx="637.18536"
         sodipodi:cy="432.58456"
         sodipodi:r1="229.0166"
         sodipodi:r2="198.3342"
         sodipodi:arg1="0.52359878"
         sodipodi:arg2="1.0471976"
         inkscape:rounded="0.1"
         inkscape:randomized="0"
         d="m 835.51956,547.09287 c -11.45083,19.83342 -175.43254,114.5083 -198.3342,114.5083 -22.90166,0 -186.88336,-94.67489 -198.33419,-114.50831 -11.45083,-19.83342 -11.45083,-209.18318 0,-229.0166 11.45083,-19.83342 175.43253,-114.5083 198.33419,-114.5083 22.90166,0 186.88337,94.67488 198.3342,114.5083 11.45083,19.83342 11.45083,209.18319 0,229.01661 z"
         transform="matrix(0.22606855,0.13024859,-0.13052073,0.22559719,136.35479,812.86905)" /><path
         id="path68"
         style="fill:#ffdd55;stroke-width:0.261042"
         d="m 231.81121,939.54873 -12.65865,53.72395 h 9.59674 l -13.12166,54.08142 c 15.90105,0.3723 35.08171,-0.3229 38.20488,-2.1261 5.17734,-2.9891 29.89142,-45.79518 29.89142,-51.77346 10e-6,-5.97828 -24.71407,-48.78436 -29.89141,-51.7735 -2.08266,-1.20242 -11.37848,-1.89727 -22.02132,-2.13231 z" /></g><g
       id="g109"
       transform="translate(-655.10426,-822.0122)"><path
         sodipodi:type="star"
         style="fill:#672178"
         id="path70"
         inkscape:flatsided="true"
         sodipodi:sides="6"
         sodipodi:cx="637.18536"
         sodipodi:cy="432.58456"
         sodipodi:r1="229.0166"
         sodipodi:r2="198.3342"
         sodipodi:arg1="0.52359878"
         sodipodi:arg2="1.0471976"
         inkscape:rounded="0.1"
         inkscape:randomized="0"
         d="m 835.51956,547.09287 c -11.45083,19.83342 -175.43254,114.5083 -198.3342,114.5083 -22.90166,0 -186.88336,-94.67489 -198.33419,-114.50831 -11.45083,-19.83342 -11.45083,-209.18318 0,-229.0166 11.45083,-19.83342 175.43253,-114.5083 198.33419,-114.5083 22.90166,0 186.88337,94.67488 198.3342,114.5083 11.45083,19.83342 11.45083,209.18319 0,229.01661 z"
         transform="matrix(0.22606855,0.13024859,-0.13052073,0.22559719,276.36194,812.86905)" /><path
         id="path71"
         style="fill:#ab37c8;stroke-width:0.261042"
         d="m 371.81836,939.54873 -12.65865,53.72395 h 9.59674 l -13.12166,54.08142 c 15.90105,0.3723 35.08171,-0.3229 38.20488,-2.1261 5.17734,-2.9891 29.89142,-45.79518 29.89142,-51.77346 1e-5,-5.97828 -24.71407,-48.78436 -29.89141,-51.7735 -2.08266,-1.20242 -11.37848,-1.89727 -22.02132,-2.13231 z" /></g><g
       id="g112"
       transform="translate(-655.71658,-822.0122)"><path
         sodipodi:type="star"
         style="fill:#2c5aa0"
         id="path72"
         inkscape:flatsided="true"
         sodipodi:sides="6"
         sodipodi:cx="637.18536"
         sodipodi:cy="432.58456"
         sodipodi:r1="229.0166"
         sodipodi:r2="198.3342"
         sodipodi:arg1="0.52359878"
         sodipodi:arg2="1.0471976"
         inkscape:rounded="0.1"
         inkscape:randomized="0"
         d="m 835.51956,547.09287 c -11.45083,19.83342 -175.43254,114.5083 -198.3342,114.5083 -22.90166,0 -186.88336,-94.67489 -198.33419,-114.50831 -11.45083,-19.83342 -11.45083,-209.18318 0,-229.0166 11.45083,-19.83342 175.43253,-114.5083 198.33419,-114.5083 22.90166,0 186.88337,94.67488 198.3342,114.5083 11.45083,19.83342 11.45083,209.18319 0,229.01661 z"
         transform="matrix(0.22606855,0.13024859,-0.13052073,0.22559719,416.36909,812.86905)" /><path
         id="path73"
         style="fill:#5f8dd3;stroke-width:0.261042"
         d="m 511.82551,939.54873 -12.65865,53.72395 h 9.59674 l -13.12166,54.08142 c 15.90105,0.3723 35.08171,-0.3229 38.20488,-2.1261 5.17734,-2.9891 29.89142,-45.79518 29.89142,-51.77346 10e-6,-5.97828 -24.71407,-48.78436 -29.89141,-51.7735 -2.08266,-1.20242 -11.37848,-1.89727 -22.02132,-2.13231 z" /></g><g
       id="g99"
       transform="translate(-655.03694,-823.42642)"><path
         sodipodi:type="star"
         style="fill:#333333"
         id="path74"
         inkscape:flatsided="true"
         sodipodi:sides="6"
         sodipodi:cx="637.18536"
         sodipodi:cy="432.58456"
         sodipodi:r1="229.0166"
         sodipodi:r2="198.3342"
         sodipodi:arg1="0.52359878"
         sodipodi:arg2="1.0471976"
         inkscape:rounded="0.1"
         inkscape:randomized="0"
         d="m 835.51956,547.09287 c -11.45083,19.83342 -175.43254,114.5083 -198.3342,114.5083 -22.90166,0 -186.88336,-94.67489 -198.33419,-114.50831 -11.45083,-19.83342 -11.45083,-209.18318 0,-229.0166 11.45083,-19.83342 175.43253,-114.5083 198.33419,-114.5083 22.90166,0 186.88337,94.67488 198.3342,114.5083 11.45083,19.83342 11.45083,209.18319 0,229.01661 z"
         transform="matrix(0.20462897,0.11802761,-0.11814259,0.20442981,5.81136,718.50728)" /><path
         id="path75"
         style="fill:#4d4d4d;stroke-width:0.236055"
         d="m 91.77335,833.39328 -11.44433,48.57079 h 9.59674 l -11.87142,48.92848 c 14.28998,0.31306 31.29855,-0.3151 34.09356,-1.92881 4.68178,-2.70302 27.03034,-41.41176 27.03034,-46.81781 0,-5.40605 -22.34856,-44.11479 -27.03033,-46.81781 -1.91297,-1.10445 -10.55975,-1.73294 -20.37456,-1.93484 z" /></g><g
       id="g102"
       transform="translate(-638.6787,-823.42643)"><path
         sodipodi:type="star"
         style="fill:#ffcc00"
         id="path76"
         inkscape:flatsided="true"
         sodipodi:sides="6"
         sodipodi:cx="637.18536"
         sodipodi:cy="432.58456"
         sodipodi:r1="229.0166"
         sodipodi:r2="198.3342"
         sodipodi:arg1="0.52359878"
         sodipodi:arg2="1.0471976"
         inkscape:rounded="0.1"
         inkscape:randomized="0"
         d="m 835.51956,547.09287 c -11.45083,19.83342 -175.43254,114.5083 -198.3342,114.5083 -22.90166,0 -186.88336,-94.67489 -198.33419,-114.50831 -11.45083,-19.83342 -11.45083,-209.18318 0,-229.0166 11.45083,-19.83342 175.43253,-114.5083 198.33419,-114.5083 22.90166,0 186.88337,94.67488 198.3342,114.5083 11.45083,19.83342 11.45083,209.18319 0,229.01661 z"
         transform="matrix(0.20462897,0.11802761,-0.11814259,0.20442981,128.84794,718.54322)" /><path
         id="path77"
         style="fill:#ffdd55;stroke-width:0.236055"
         d="m 214.80993,833.42922 -11.44433,48.57079 h 9.59674 l -11.87142,48.92848 c 14.28998,0.31306 31.29855,-0.3151 34.09356,-1.92881 4.68178,-2.70302 27.03034,-41.41176 27.03034,-46.81781 0,-5.40605 -22.34856,-44.11479 -27.03033,-46.81781 -1.91297,-1.10445 -10.55975,-1.73294 -20.37456,-1.93484 z" /></g><g
       id="g108"
       transform="translate(-622.32045,-823.46237)"><path
         sodipodi:type="star"
         style="fill:#672178"
         id="path78"
         inkscape:flatsided="true"
         sodipodi:sides="6"
         sodipodi:cx="637.18536"
         sodipodi:cy="432.58456"
         sodipodi:r1="229.0166"
         sodipodi:r2="198.3342"
         sodipodi:arg1="0.52359878"
         sodipodi:arg2="1.0471976"
         inkscape:rounded="0.1"
         inkscape:randomized="0"
         d="m 835.51956,547.09287 c -11.45083,19.83342 -175.43254,114.5083 -198.3342,114.5083 -22.90166,0 -186.88336,-94.67489 -198.33419,-114.50831 -11.45083,-19.83342 -11.45083,-209.18318 0,-229.0166 11.45083,-19.83342 175.43253,-114.5083 198.33419,-114.5083 22.90166,0 186.88337,94.67488 198.3342,114.5083 11.45083,19.83342 11.45083,209.18319 0,229.01661 z"
         transform="matrix(0.20462897,0.11802761,-0.11814259,0.20442981,251.88452,718.6151)" /><path
         id="path79"
         style="fill:#ab37c8;stroke-width:0.236055"
         d="m 337.84651,833.5011 -11.44432,48.57079 h 9.59674 l -11.87142,48.92848 c 14.28998,0.31306 31.29855,-0.3151 34.09355,-1.92881 4.68179,-2.70302 27.03035,-41.41176 27.03035,-46.81781 0,-5.40605 -22.34856,-44.11479 -27.03033,-46.81781 -1.91297,-1.10445 -10.55975,-1.73294 -20.37457,-1.93484 z" /></g><g
       id="g111"
       transform="translate(-605.96221,-823.46238)"><path
         sodipodi:type="star"
         style="fill:#2c5aa0"
         id="path80"
         inkscape:flatsided="true"
         sodipodi:sides="6"
         sodipodi:cx="637.18536"
         sodipodi:cy="432.58456"
         sodipodi:r1="229.0166"
         sodipodi:r2="198.3342"
         sodipodi:arg1="0.52359878"
         sodipodi:arg2="1.0471976"
         inkscape:rounded="0.1"
         inkscape:randomized="0"
         d="m 835.51956,547.09287 c -11.45083,19.83342 -175.43254,114.5083 -198.3342,114.5083 -22.90166,0 -186.88336,-94.67489 -198.33419,-114.50831 -11.45083,-19.83342 -11.45083,-209.18318 0,-229.0166 11.45083,-19.83342 175.43253,-114.5083 198.33419,-114.5083 22.90166,0 186.88337,94.67488 198.3342,114.5083 11.45083,19.83342 11.45083,209.18319 0,229.01661 z"
         transform="matrix(0.20462897,0.11802761,-0.11814259,0.20442981,374.92111,718.65104)" /><path
         id="path81"
         style="fill:#5f8dd3;stroke-width:0.236055"
         d="m 460.8831,833.53704 -11.44433,48.57079 h 9.59674 l -11.87142,48.92848 c 14.28998,0.31306 31.29855,-0.3151 34.09356,-1.92881 4.68178,-2.70302 27.03034,-41.41176 27.03034,-46.81781 0,-5.40605 -22.34856,-44.11479 -27.03033,-46.81781 -1.91297,-1.10445 -10.55975,-1.73294 -20.37456,-1.93484 z" /></g><g
       id="g98"
       transform="translate(-654.66384,-820.47857)"><path
         sodipodi:type="star"
         style="fill:#333333"
         id="path82"
         inkscape:flatsided="true"
         sodipodi:sides="6"
         sodipodi:cx="637.18536"
         sodipodi:cy="432.58456"
         sodipodi:r1="229.0166"
         sodipodi:r2="198.3342"
         sodipodi:arg1="0.52359878"
         sodipodi:arg2="1.0471976"
         inkscape:rounded="0.1"
         inkscape:randomized="0"
         d="m 835.51956,547.09287 c -11.45083,19.83342 -175.43254,114.5083 -198.3342,114.5083 -22.90166,0 -186.88336,-94.67489 -198.33419,-114.50831 -11.45083,-19.83342 -11.45083,-209.18318 0,-229.0166 11.45083,-19.83342 175.43253,-114.5083 198.33419,-114.5083 22.90166,0 186.88337,94.67488 198.3342,114.5083 11.45083,19.83342 11.45083,209.18319 0,229.01661 z"
         transform="matrix(0.15637628,0.08999649,-0.09028389,0.1558785,24.13292,658.36142)" /><path
         id="path83"
         style="fill:#4d4d4d;stroke-width:0.179836"
         d="m 88.72557,746.01021 -8.71222,36.97561 h 9.59674 l -9.05853,37.33465 c 10.63938,0.18195 22.78647,-0.2978 24.84313,-1.48521 3.56676,-2.05927 20.59256,-31.54904 20.59256,-35.66758 0,-4.11854 -17.02581,-33.60853 -20.59256,-35.6678 -1.53112,-0.88398 -8.72573,-1.36463 -16.66912,-1.48967 z" /></g><g
       id="g103"
       transform="translate(-611.43553,-820.47859)"><path
         sodipodi:type="star"
         style="fill:#ffcc00"
         id="path84"
         inkscape:flatsided="true"
         sodipodi:sides="6"
         sodipodi:cx="637.18536"
         sodipodi:cy="432.58456"
         sodipodi:r1="229.0166"
         sodipodi:r2="198.3342"
         sodipodi:arg1="0.52359878"
         sodipodi:arg2="1.0471976"
         inkscape:rounded="0.1"
         inkscape:randomized="0"
         d="m 835.51956,547.09287 c -11.45083,19.83342 -175.43254,114.5083 -198.3342,114.5083 -22.90166,0 -186.88336,-94.67489 -198.33419,-114.50831 -11.45083,-19.83342 -11.45083,-209.18318 0,-229.0166 11.45083,-19.83342 175.43253,-114.5083 198.33419,-114.5083 22.90166,0 186.88337,94.67488 198.3342,114.5083 11.45083,19.83342 11.45083,209.18319 0,229.01661 z"
         transform="matrix(0.15637628,0.08999649,-0.09028389,0.1558785,120.29944,658.4333)" /><path
         id="path85"
         style="fill:#ffdd55;stroke-width:0.179836"
         d="m 184.89209,746.08209 -8.71222,36.97561 h 9.59674 l -9.05853,37.33465 c 10.63938,0.18195 22.78647,-0.2978 24.84313,-1.48521 3.56676,-2.05927 20.59256,-31.54904 20.59256,-35.66758 0,-4.11854 -17.02581,-33.60853 -20.59256,-35.6678 -1.53112,-0.88398 -8.72573,-1.36463 -16.66912,-1.48967 z" /></g><g
       id="g107"
       transform="translate(-568.20722,-824.64936)"><path
         sodipodi:type="star"
         style="fill:#672178"
         id="path86"
         inkscape:flatsided="true"
         sodipodi:sides="6"
         sodipodi:cx="637.18536"
         sodipodi:cy="432.58456"
         sodipodi:r1="229.0166"
         sodipodi:r2="198.3342"
         sodipodi:arg1="0.52359878"
         sodipodi:arg2="1.0471976"
         inkscape:rounded="0.1"
         inkscape:randomized="0"
         d="m 835.51956,547.09287 c -11.45083,19.83342 -175.43254,114.5083 -198.3342,114.5083 -22.90166,0 -186.88336,-94.67489 -198.33419,-114.50831 -11.45083,-19.83342 -11.45083,-209.18318 0,-229.0166 11.45083,-19.83342 175.43253,-114.5083 198.33419,-114.5083 22.90166,0 186.88337,94.67488 198.3342,114.5083 11.45083,19.83342 11.45083,209.18319 0,229.01661 z"
         transform="matrix(0.15637628,0.08999649,-0.09028389,0.1558785,216.46596,662.67594)" /><path
         id="path87"
         style="fill:#ab37c8;stroke-width:0.179836"
         d="m 281.05861,750.32473 -8.71222,36.97561 h 9.59674 l -9.05853,37.33465 c 10.63938,0.18195 22.78647,-0.2978 24.84313,-1.48521 3.56676,-2.05927 20.59256,-31.54904 20.59256,-35.66758 0,-4.11854 -17.02581,-33.60853 -20.59256,-35.6678 -1.53112,-0.88398 -8.72573,-1.36463 -16.66912,-1.48967 z" /></g><g
       id="g110"
       transform="translate(-522.4504,-824.62503)"><path
         sodipodi:type="star"
         style="fill:#2c5aa0"
         id="path88"
         inkscape:flatsided="true"
         sodipodi:sides="6"
         sodipodi:cx="637.18536"
         sodipodi:cy="432.58456"
         sodipodi:r1="229.0166"
         sodipodi:r2="198.3342"
         sodipodi:arg1="0.52359878"
         sodipodi:arg2="1.0471976"
         inkscape:rounded="0.1"
         inkscape:randomized="0"
         d="m 835.51956,547.09287 c -11.45083,19.83342 -175.43254,114.5083 -198.3342,114.5083 -22.90166,0 -186.88336,-94.67489 -198.33419,-114.50831 -11.45083,-19.83342 -11.45083,-209.18318 0,-229.0166 11.45083,-19.83342 175.43253,-114.5083 198.33419,-114.5083 22.90166,0 186.88337,94.67488 198.3342,114.5083 11.45083,19.83342 11.45083,209.18319 0,229.01661 z"
         transform="matrix(0.15637628,0.08999649,-0.09028389,0.1558785,312.71643,662.72348)" /><path
         id="path89"
         style="fill:#5f8dd3;stroke-width:0.179836"
         d="m 377.30908,750.37227 -8.71222,36.97561 h 9.59674 l -9.05853,37.33465 c 10.63938,0.18195 22.78647,-0.2978 24.84313,-1.48521 3.56676,-2.05927 20.59256,-31.54904 20.59256,-35.66758 0,-4.11854 -17.02581,-33.60853 -20.59256,-35.6678 -1.53112,-0.88398 -8.72573,-1.36463 -16.66912,-1.48967 z" /></g><g
       id="g97"
       transform="translate(-654.66384,-808.14968)"><path
         sodipodi:type="star"
         style="fill:#333333"
         id="path90"
         inkscape:flatsided="true"
         sodipodi:sides="6"
         sodipodi:cx="637.18536"
         sodipodi:cy="432.58456"
         sodipodi:r1="229.0166"
         sodipodi:r2="198.3342"
         sodipodi:arg1="0.52359878"
         sodipodi:arg2="1.0471976"
         inkscape:rounded="0.1"
         inkscape:randomized="0"
         d="m 835.51956,547.09287 c -11.45083,19.83342 -175.43254,114.5083 -198.3342,114.5083 -22.90166,0 -186.88336,-94.67489 -198.33419,-114.50831 -11.45083,-19.83342 -11.45083,-209.18318 0,-229.0166 11.45083,-19.83342 175.43253,-114.5083 198.33419,-114.5083 22.90166,0 186.88337,94.67488 198.3342,114.5083 11.45083,19.83342 11.45083,209.18319 0,229.01661 z"
         transform="matrix(0.08183317,0.04724237,-0.04724641,0.08182618,53.01335,638.54123)" /><path
         id="path91"
         style="fill:#4d4d4d;stroke-width:0.094493"
         d="m 84.71818,684.48599 c -0.0763,0 -0.14882,0.003 -0.22515,0.003 l -4.5634,19.36776 h 9.59674 l -4.78811,19.73437 c 4.93477,-8.8e-4 9.86436,-0.27106 10.80013,-0.81133 1.87412,-1.08202 10.82021,-16.57714 10.82021,-18.74118 0,-2.16405 -8.94609,-17.65938 -10.82021,-18.74141 -0.93706,-0.54101 -5.87862,-0.81133 -10.82021,-0.81133 z" /></g><g
       id="g104"
       transform="translate(-570.08251,-811.93581)"><path
         sodipodi:type="star"
         style="fill:#ffcc00"
         id="path92"
         inkscape:flatsided="true"
         sodipodi:sides="6"
         sodipodi:cx="637.18536"
         sodipodi:cy="432.58456"
         sodipodi:r1="229.0166"
         sodipodi:r2="198.3342"
         sodipodi:arg1="0.52359878"
         sodipodi:arg2="1.0471976"
         inkscape:rounded="0.1"
         inkscape:randomized="0"
         d="m 835.51956,547.09287 c -11.45083,19.83342 -175.43254,114.5083 -198.3342,114.5083 -22.90166,0 -186.88336,-94.67489 -198.33419,-114.50831 -11.45083,-19.83342 -11.45083,-209.18318 0,-229.0166 11.45083,-19.83342 175.43253,-114.5083 198.33419,-114.5083 22.90166,0 186.88337,94.67488 198.3342,114.5083 11.45083,19.83342 11.45083,209.18319 0,229.01661 z"
         transform="matrix(0.08183317,0.04724237,-0.04724641,0.08182618,107.82685,638.54123)" /><path
         id="path93"
         style="fill:#ffdd55;stroke-width:0.094493"
         d="m 139.53168,684.48599 c -0.0763,0 -0.14882,0.003 -0.22515,0.003 l -4.5634,19.36776 h 9.59674 l -4.78811,19.73437 c 4.93477,-8.8e-4 9.86436,-0.27106 10.80013,-0.81133 1.87412,-1.08202 10.82021,-16.57714 10.82021,-18.74118 0,-2.16405 -8.94609,-17.65938 -10.82021,-18.74141 -0.93706,-0.54101 -5.87862,-0.81133 -10.82021,-0.81133 z" /></g><g
       id="g105"
       transform="translate(-346.10635,-811.93581)"><path
         sodipodi:type="star"
         style="fill:#2c5aa0"
         id="path94"
         inkscape:flatsided="true"
         sodipodi:sides="6"
         sodipodi:cx="637.18536"
         sodipodi:cy="432.58456"
         sodipodi:r1="229.0166"
         sodipodi:r2="198.3342"
         sodipodi:arg1="0.52359878"
         sodipodi:arg2="1.0471976"
         inkscape:rounded="0.1"
         inkscape:randomized="0"
         d="m 835.51956,547.09287 c -11.45083,19.83342 -175.43254,114.5083 -198.3342,114.5083 -22.90166,0 -186.88336,-94.67489 -198.33419,-114.50831 -11.45083,-19.83342 -11.45083,-209.18318 0,-229.0166 11.45083,-19.83342 175.43253,-114.5083 198.33419,-114.5083 22.90166,0 186.88337,94.67488 198.3342,114.5083 11.45083,19.83342 11.45083,209.18319 0,229.01661 z"
         transform="matrix(0.08183317,0.04724237,-0.04724641,0.08182618,162.64035,638.54123)" /><path
         id="path95"
         style="fill:#5f8dd3;stroke-width:0.094493"
         d="m 194.34518,684.48599 c -0.0763,0 -0.14882,0.003 -0.22515,0.003 l -4.5634,19.36776 h 9.59674 l -4.78811,19.73437 c 4.93477,-8.8e-4 9.86436,-0.27106 10.80013,-0.81133 1.87412,-1.08202 10.82021,-16.57714 10.82021,-18.74118 0,-2.16405 -8.94609,-17.65938 -10.82021,-18.74141 -0.93706,-0.54101 -5.87862,-0.81133 -10.82021,-0.81133 z" /></g><g
       id="g106"
       transform="translate(-540.31468,-811.93581)"><path
         sodipodi:type="star"
         style="fill:#672178"
         id="path96"
         inkscape:flatsided="true"
         sodipodi:sides="6"
         sodipodi:cx="637.18536"
         sodipodi:cy="432.58456"
         sodipodi:r1="229.0166"
         sodipodi:r2="198.3342"
         sodipodi:arg1="0.52359878"
         sodipodi:arg2="1.0471976"
         inkscape:rounded="0.1"
         inkscape:randomized="0"
         d="m 835.51956,547.09287 c -11.45083,19.83342 -175.43254,114.5083 -198.3342,114.5083 -22.90166,0 -186.88336,-94.67489 -198.33419,-114.50831 -11.45083,-19.83342 -11.45083,-209.18318 0,-229.0166 11.45083,-19.83342 175.43253,-114.5083 198.33419,-114.5083 22.90166,0 186.88337,94.67488 198.3342,114.5083 11.45083,19.83342 11.45083,209.18319 0,229.01661 z"
         transform="matrix(0.08183317,0.04724237,-0.04724641,0.08182618,217.45385,638.54123)" /><path
         id="path97"
         style="fill:#ab37c8;stroke-width:0.094493"
         d="m 249.15868,684.48599 c -0.0763,0 -0.14882,0.003 -0.22515,0.003 l -4.5634,19.36776 h 9.59674 l -4.78811,19.73437 c 4.93477,-8.8e-4 9.86436,-0.27106 10.80013,-0.81133 1.87412,-1.08202 10.82021,-16.57714 10.82021,-18.74118 0,-2.16405 -8.94609,-17.65938 -10.82021,-18.74141 -0.93706,-0.54101 -5.87862,-0.81133 -10.82021,-0.81133 z" /></g><g
       id="g136"
       transform="matrix(1.6058122,0,0,1.6058122,-226.58467,-504.28783)"><path
         sodipodi:type="star"
         style="fill:#333333"
         id="path135"
         inkscape:flatsided="true"
         sodipodi:sides="6"
         sodipodi:cx="637.18536"
         sodipodi:cy="432.58456"
         sodipodi:r1="229.0166"
         sodipodi:r2="198.3342"
         sodipodi:arg1="0.52359878"
         sodipodi:arg2="1.0471976"
         inkscape:rounded="0.1"
         inkscape:randomized="0"
         d="m 835.51956,547.09287 c -11.45083,19.83342 -175.43254,114.5083 -198.3342,114.5083 -22.90166,0 -186.88336,-94.67489 -198.33419,-114.50831 -11.45083,-19.83342 -11.45083,-209.18318 0,-229.0166 11.45083,-19.83342 175.43253,-114.5083 198.33419,-114.5083 22.90166,0 186.88337,94.67488 198.3342,114.5083 11.45083,19.83342 11.45083,209.18319 0,229.01661 z"
         transform="matrix(0.22606855,0.13024859,-0.13052073,0.22559719,113.29936,193.19099)" /><path
         id="path136"
         style="fill:#4d4d4d;stroke-width:0.261042"
         d="m 208.75578,319.87067 -12.65865,53.72395 h 9.59674 l -13.12166,54.08142 c 15.90105,0.37231 35.08171,-0.3229 38.20488,-2.12606 5.17734,-2.98914 29.89142,-45.79522 29.89142,-51.7735 10e-6,-5.97828 -24.71407,-48.78436 -29.89141,-51.7735 -2.08266,-1.20242 -11.37848,-1.89727 -22.02132,-2.13231 z" /></g><g
       id="g138"
       transform="matrix(1.6058122,0,0,1.6058122,-366.58162,-827.9906)"><path
         sodipodi:type="star"
         style="fill:#ffcc00"
         id="path137"
         inkscape:flatsided="true"
         sodipodi:sides="6"
         sodipodi:cx="637.18536"
         sodipodi:cy="432.58456"
         sodipodi:r1="229.0166"
         sodipodi:r2="198.3342"
         sodipodi:arg1="0.52359878"
         sodipodi:arg2="1.0471976"
         inkscape:rounded="0.1"
         inkscape:randomized="0"
         d="m 835.51956,547.09287 c -11.45083,19.83342 -175.43254,114.5083 -198.3342,114.5083 -22.90166,0 -186.88336,-94.67489 -198.33419,-114.50831 -11.45083,-19.83342 -11.45083,-209.18318 0,-229.0166 11.45083,-19.83342 175.43253,-114.5083 198.33419,-114.5083 22.90166,0 186.88337,94.67488 198.3342,114.5083 11.45083,19.83342 11.45083,209.18319 0,229.01661 z"
         transform="matrix(0.20462897,0.11802761,-0.11814259,0.20442981,208.78715,411.76525)" /><path
         id="path138"
         style="fill:#ffdd55;stroke-width:0.236055"
         d="m 294.74914,526.65125 -11.44433,48.57079 h 9.59674 l -11.87142,48.92848 c 14.28998,0.31306 31.29855,-0.3151 34.09356,-1.92881 4.68178,-2.70302 27.03034,-41.41176 27.03034,-46.81781 0,-5.40605 -22.34856,-44.11479 -27.03033,-46.81781 -1.91297,-1.10445 -10.55975,-1.73294 -20.37456,-1.93484 z" /></g><g
       id="g140"
       transform="matrix(1.6058122,0,0,1.6058122,-372.4067,-847.50382)"><path
         sodipodi:type="star"
         style="fill:#672178"
         id="path139"
         inkscape:flatsided="true"
         sodipodi:sides="6"
         sodipodi:cx="637.18536"
         sodipodi:cy="432.58456"
         sodipodi:r1="229.0166"
         sodipodi:r2="198.3342"
         sodipodi:arg1="0.52359878"
         sodipodi:arg2="1.0471976"
         inkscape:rounded="0.1"
         inkscape:randomized="0"
         d="m 835.51956,547.09287 c -11.45083,19.83342 -175.43254,114.5083 -198.3342,114.5083 -22.90166,0 -186.88336,-94.67489 -198.33419,-114.50831 -11.45083,-19.83342 -11.45083,-209.18318 0,-229.0166 11.45083,-19.83342 175.43253,-114.5083 198.33419,-114.5083 22.90166,0 186.88337,94.67488 198.3342,114.5083 11.45083,19.83342 11.45083,209.18319 0,229.01661 z"
         transform="matrix(0.15637628,0.08999649,-0.09028389,0.1558785,231.10931,462.78044)" /><path
         id="path140"
         style="fill:#ab37c8;stroke-width:0.179836"
         d="m 295.70196,550.42923 -8.71222,36.97561 h 9.59674 l -9.05853,37.33465 c 10.63938,0.18195 22.78647,-0.2978 24.84313,-1.48521 3.56676,-2.05927 20.59256,-31.54904 20.59256,-35.66758 0,-4.11854 -17.02581,-33.60853 -20.59256,-35.6678 -1.53112,-0.88398 -8.72573,-1.36463 -16.66912,-1.48967 z" /></g><g
       id="g142"
       transform="matrix(1.6058122,0,0,1.6058122,-381.51315,-813.80125)"><path
         sodipodi:type="star"
         style="fill:#2c5aa0"
         id="path141"
         inkscape:flatsided="true"
         sodipodi:sides="6"
         sodipodi:cx="637.18536"
         sodipodi:cy="432.58456"
         sodipodi:r1="229.0166"
         sodipodi:r2="198.3342"
         sodipodi:arg1="0.52359878"
         sodipodi:arg2="1.0471976"
         inkscape:rounded="0.1"
         inkscape:randomized="0"
         d="m 835.51956,547.09287 c -11.45083,19.83342 -175.43254,114.5083 -198.3342,114.5083 -22.90166,0 -186.88336,-94.67489 -198.33419,-114.50831 -11.45083,-19.83342 -11.45083,-209.18318 0,-229.0166 11.45083,-19.83342 175.43253,-114.5083 198.33419,-114.5083 22.90166,0 186.88337,94.67488 198.3342,114.5083 11.45083,19.83342 11.45083,209.18319 0,229.01661 z"
         transform="matrix(0.08183317,0.04724237,-0.04724641,0.08182618,265.66067,501.07039)" /><path
         id="path142"
         style="fill:#5f8dd3;stroke-width:0.094493"
         d="m 297.3655,547.01515 c -0.0763,0 -0.14882,0.003 -0.22515,0.003 l -4.5634,19.36776 h 9.59674 l -4.78811,19.73437 c 4.93477,-8.8e-4 9.86436,-0.27106 10.80013,-0.81133 1.87412,-1.08202 10.82021,-16.57714 10.82021,-18.74118 0,-2.16405 -8.94609,-17.65938 -10.82021,-18.74141 -0.93706,-0.54101 -5.87862,-0.81133 -10.82021,-0.81133 z" /></g></g></svg>
