<?xml version="1.0" encoding="UTF-8" standalone="no"?>
<!-- Created with Inkscape (http://www.inkscape.org/) -->

<svg
   width="1080"
   height="1080"
   viewBox="0 0 1080 1080"
   version="1.1"
   id="svg1"
   xml:space="preserve"
   inkscape:version="1.3.2 (091e20e, 2023-11-25, custom)"
   sodipodi:docname="CleanArchLogo-BlogColors.inkscape.svg"
   inkscape:export-filename="CleanArchLogo-OriginalColors.png"
   inkscape:export-xdpi="96"
   inkscape:export-ydpi="96"
   xmlns:inkscape="http://www.inkscape.org/namespaces/inkscape"
   xmlns:sodipodi="http://sodipodi.sourceforge.net/DTD/sodipodi-0.dtd"
   xmlns="http://www.w3.org/2000/svg"
   xmlns:svg="http://www.w3.org/2000/svg"><sodipodi:namedview
     id="namedview1"
     pagecolor="#ffffff"
     bordercolor="#000000"
     borderopacity="0.25"
     inkscape:showpageshadow="2"
     inkscape:pageopacity="0.0"
     inkscape:pagecheckerboard="0"
     inkscape:deskcolor="#d1d1d1"
     inkscape:document-units="px"
     inkscape:zoom="0.70710678"
     inkscape:cx="614.47579"
     inkscape:cy="536.69405"
     inkscape:window-width="2304"
     inkscape:window-height="1190"
     inkscape:window-x="2293"
     inkscape:window-y="-11"
     inkscape:window-maximized="1"
     inkscape:current-layer="layer1"
     showguides="true" /><defs
     id="defs1"><marker
       style="overflow:visible"
       id="Triangle"
       refX="0"
       refY="0"
       orient="auto-start-reverse"
       inkscape:stockid="Triangle arrow"
       markerWidth="1"
       markerHeight="1"
       viewBox="0 0 1 1"
       inkscape:isstock="true"
       inkscape:collect="always"
       preserveAspectRatio="xMidYMid"><path
         transform="scale(0.5)"
         style="fill:context-stroke;fill-rule:evenodd;stroke:context-stroke;stroke-width:1pt"
         d="M 5.77,0 -2.88,5 V -5 Z"
         id="path135" /></marker><marker
       style="overflow:visible"
       id="ColoredTriangle"
       refX="0"
       refY="0"
       orient="auto-start-reverse"
       inkscape:stockid="Colored triangle"
       markerWidth="1"
       markerHeight="1"
       viewBox="0 0 1 1"
       inkscape:isstock="true"
       inkscape:collect="always"
       preserveAspectRatio="xMidYMid"><path
         transform="scale(0.5)"
         style="fill:context-fill;fill-rule:evenodd;stroke:context-stroke;stroke-width:2"
         d="M 5.77,0 -2.88,5 V -5 Z"
         id="path69" /></marker></defs><g
     inkscape:label="Camada 1"
     inkscape:groupmode="layer"
     id="layer1"><path
       sodipodi:type="star"
       style="fill:#b3b3b3"
       id="path1"
       inkscape:flatsided="true"
       sodipodi:sides="6"
       sodipodi:cx="637.18536"
       sodipodi:cy="432.58456"
       sodipodi:r1="229.0166"
       sodipodi:r2="198.3342"
       sodipodi:arg1="0.52359878"
       sodipodi:arg2="1.0471976"
       inkscape:rounded="0.1"
       inkscape:randomized="0"
       d="m 835.51956,547.09287 c -11.45083,19.83342 -175.43254,114.5083 -198.3342,114.5083 -22.90166,0 -186.88336,-94.67489 -198.33419,-114.50831 -11.45083,-19.83342 -11.45083,-209.18318 0,-229.0166 11.45083,-19.83342 175.43253,-114.5083 198.33419,-114.5083 22.90166,0 186.88337,94.67488 198.3342,114.5083 11.45083,19.83342 11.45083,209.18319 0,229.01661 z"
       transform="rotate(30,1107.6045,3594.1986)" /><path
       id="path25"
       style="fill:#37a2fd;stroke-width:2.28489;fill-opacity:1"
       d="M 540.00002,69.011161 C 420.51005,69.011148 301.01988,75.552287 278.36133,88.63421 233.04423,114.79807 16.722676,489.47839 16.722658,541.80608 c 2e-6,52.32769 216.321572,427.00804 261.638672,453.17188 17.98004,10.38074 97.32912,16.46594 188.87111,18.60934 l 114.8535,-473.37302 -83.99999,10e-6 110.80078,-470.244155 c -22.63361,-0.499842 -45.5299,-0.958975 -68.88671,-0.958974 z" /><path
       id="path22"
       style="fill:#a7d7fd;stroke-width:2.28489;fill-opacity:1"
       d="m 608.88673,69.970135 -110.80078,470.244155 83.99999,-10e-6 -114.8535,473.37302 c 139.18142,3.2589 307.06918,-2.8263 334.40623,-18.60935 45.31712,-26.16384 261.63873,-400.84419 261.63873,-453.17188 0,-52.32769 -216.32161,-427.00801 -261.63873,-453.171865 C 783.40922,78.109424 702.04325,72.027429 608.88673,69.970135 Z" /><path
       id="path26"
       style="fill:#5dfd88;stroke-width:2.06618;fill-opacity:1"
       d="m 540.00002,114.26504 c -108.05266,-1e-5 -216.10598,5.91634 -236.59571,17.74609 -40.97947,23.65951 -236.595707,362.47592 -236.595704,409.79493 4e-6,47.319 195.616234,386.1354 236.595704,409.79491 16.51479,9.53482 90.33677,15.0331 174.77148,16.88281 l 103.91016,-428.26954 -84.00001,2e-5 100.17188,-425.13868 c -19.21768,-0.39532 -38.50521,-0.81054 -58.2578,-0.81054 z" /><path
       id="path23"
       style="fill:#a2fdba;stroke-width:2.06618;fill-opacity:1"
       d="m 598.25782,115.07558 -100.17188,425.13868 84.00001,-2e-5 -103.91016,428.26954 c 125.07978,2.74014 273.95526,-2.75813 298.41993,-16.8828 40.97946,-23.6595 236.59568,-362.47592 236.59568,-409.79492 0,-47.31901 -195.61623,-386.13544 -236.59568,-409.79493 -16.7441,-9.66721 -92.4291,-15.16833 -178.3379,-16.93555 z" /><path
       id="path27"
       style="fill:#ff706b;stroke-width:1.5741;fill-opacity:1"
       d="m 540.00002,216.08925 c -82.3187,-1e-5 -164.63819,4.50523 -180.24805,13.51758 -31.21974,18.02472 -180.2461,276.14978 -180.24639,312.19905 0,36.04945 149.02636,294.17254 180.2461,312.19727 13.21793,7.63137 74.66643,11.83063 143.04491,13 l 79.28907,-326.78906 h -84 l 76.25782,-323.64648 c -11.45559,-0.18034 -22.69935,-0.47853 -34.34375,-0.47852 z" /><path
       id="path24"
       style="fill:#ffa09c;stroke-width:1.5741;fill-opacity:1"
       d="m 574.34377,216.56777 -76.25782,323.64649 83.99999,-10e-6 -79.28906,326.78907 c 93.12623,1.5926 199.44937,-2.60665 217.45118,-13 31.21974,-18.02472 180.24609,-276.14782 180.24609,-312.19727 0,-36.04945 -149.02636,-294.17449 -180.24609,-312.19921 -13.40178,-7.73753 -76.37601,-11.94456 -145.90429,-13.03907 z" /><path
       id="path28"
       style="fill:#f9fd63;stroke-width:0.827096;fill-opacity:1"
       d="m 538.02931,370.68887 c -42.57716,0.072 -84.66293,2.41191 -92.73829,7.07421 -16.40412,9.47092 -94.70898,145.10113 -94.70922,164.04283 0,18.94185 78.30487,154.5701 94.70899,164.04102 8.21336,4.74199 51.57166,7.1081 94.88476,7.10156 l 41.91016,-172.73437 -84,-10e-6 z" /><path
       id="path21"
       style="fill:#fcfdb9;stroke-width:0.827096;fill-opacity:1"
       d="m 540.00001,370.66153 c -0.66818,-1e-5 -1.30265,0.0262 -1.9707,0.0273 l -39.94336,169.52538 h 83.99999 l -41.91015,172.73438 c 43.19392,-0.007 86.34245,-2.37263 94.5332,-7.10156 16.40412,-9.47093 94.70899,-145.09918 94.70898,-164.04102 10e-6,-18.94184 -78.30486,-154.57205 -94.70898,-164.04297 -8.20205,-4.73546 -51.4554,-7.10156 -94.70898,-7.10155 z" /><path
       style="fill:#f9fd63;stroke:#000000;stroke-width:12;stroke-linecap:round;stroke-linejoin:round;stroke-dasharray:none;marker-end:url(#ColoredTriangle);paint-order:stroke markers fill;fill-opacity:1"
       d="M 611.88672,59.720111 498.08595,540.21426"
       id="path30"
       sodipodi:nodetypes="cc" /><path
       style="fill:#ffffff;stroke:#000000;stroke-width:12;stroke-linecap:round;stroke-linejoin:round;stroke-dasharray:12, 24;stroke-dashoffset:0;marker-end:url(#Triangle);paint-order:stroke fill markers"
       d="M 582.08592,540.21426 474.20044,984.86847"
       id="path31"
       sodipodi:nodetypes="cc" /><path
       sodipodi:type="star"
       style="fill:#b3b3b3"
       id="path43"
       inkscape:flatsided="true"
       sodipodi:sides="6"
       sodipodi:cx="637.18536"
       sodipodi:cy="432.58456"
       sodipodi:r1="229.0166"
       sodipodi:r2="198.3342"
       sodipodi:arg1="0.52359878"
       sodipodi:arg2="1.0471976"
       inkscape:rounded="0.1"
       inkscape:randomized="0"
       d="m 835.51956,547.09287 c -11.45083,19.83342 -175.43254,114.5083 -198.3342,114.5083 -22.90166,0 -186.88336,-94.67489 -198.33419,-114.50831 -11.45083,-19.83342 -11.45083,-209.18318 0,-229.0166 11.45083,-19.83342 175.43253,-114.5083 198.33419,-114.5083 22.90166,0 186.88337,94.67488 198.3342,114.5083 11.45083,19.83342 11.45083,209.18319 0,229.01661 z"
       transform="matrix(0.34087415,0.19680378,-0.19680378,0.34087415,-289.00303,-448.67701)" /></g></svg>
